<svg
    width="24"
    height="25"
    viewBox="0 0 24 25"
    fill="none"
    xmlns="http://www.w3.org/2000/svg"
  >
    <path
      d="M7.24 2.89471H5.34C3.15 2.89471 2 4.04471 2 6.22471V8.12471C2 10.3047 3.15 11.4547 5.33 11.4547H7.23C9.41 11.4547 10.56 10.3047 10.56 8.12471V6.22471C10.57 4.04471 9.42 2.89471 7.24 2.89471Z"
      fill="#0047CC"
    />
    <path
      d="M18.6699 2.89471H16.7699C14.5899 2.89471 13.4399 4.04471 13.4399 6.22471V8.12471C13.4399 10.3047 14.5899 11.4547 16.7699 11.4547H18.6699C20.8499 11.4547 21.9999 10.3047 21.9999 8.12471V6.22471C21.9999 4.04471 20.8499 2.89471 18.6699 2.89471Z"
      fill="#0047CC"
    />
    <path
      d="M18.6699 14.3247H16.7699C14.5899 14.3247 13.4399 15.4747 13.4399 17.6547V19.5547C13.4399 21.7347 14.5899 22.8847 16.7699 22.8847H18.6699C20.8499 22.8847 21.9999 21.7347 21.9999 19.5547V17.6547C21.9999 15.4747 20.8499 14.3247 18.6699 14.3247Z"
      fill="#0047CC"
    />
    <path
      d="M7.24 14.3247H5.34C3.15 14.3247 2 15.4747 2 17.6547V19.5547C2 21.7447 3.15 22.8947 5.33 22.8947H7.23C9.41 22.8947 10.56 21.7447 10.56 19.5647V17.6647C10.57 15.4747 9.42 14.3247 7.24 14.3247Z"
      fill="#0047CC"
    />
  </svg>