  <svg
    width="154"
    height="112"
    viewBox="0 0 154 112"
    fill="none"
    xmlns="http://www.w3.org/2000/svg"
  >
    <path
      d="M75.8318 110.073C103.96 110.073 126.762 87.1933 126.762 58.9697C126.762 30.746 103.96 7.86621 75.8318 7.86621C47.704 7.86621 24.9019 30.746 24.9019 58.9697C24.9019 87.1933 47.704 110.073 75.8318 110.073Z"
      fill="#F1F3F9"
      stroke="#D6DCE8"
      stroke-width="2"
      stroke-miterlimit="10"
    />
    <path
      d="M134.098 33.8804C135.686 32.4247 135.797 29.9532 134.346 28.3602C132.895 26.7672 130.432 26.6559 128.844 28.1117C127.257 29.5674 127.146 32.0389 128.597 33.6319C130.047 35.2249 132.511 35.3362 134.098 33.8804Z"
      fill="#EAEEF9"
    />
    <path
      d="M46.398 12.2524C47.7436 11.8136 48.4798 10.3633 48.0425 9.0132C47.6051 7.66306 46.1598 6.92431 44.8143 7.36314C43.4687 7.80197 42.7325 9.25222 43.1698 10.6024C43.6071 11.9525 45.0525 12.6912 46.398 12.2524Z"
      fill="#EAEEF9"
    />
    <path
      d="M51.99 3.86497C52.905 3.56656 53.4056 2.5804 53.1082 1.66231C52.8109 0.744218 51.828 0.24186 50.9131 0.540262C49.9981 0.838664 49.4974 1.82483 49.7948 2.74292C50.0922 3.66101 51.075 4.16337 51.99 3.86497Z"
      fill="#EAEEF9"
    />
    <path
      d="M134.392 16.3631C135.061 15.7501 135.107 14.7095 134.496 14.0387C133.886 13.368 132.849 13.3211 132.18 13.9341C131.512 14.547 131.465 15.5877 132.076 16.2584C132.687 16.9292 133.724 16.976 134.392 16.3631Z"
      fill="#EAEEF9"
    />
    <path
      d="M93.9408 4.09831C94.4004 3.6769 94.4325 2.96145 94.0125 2.50031C93.5925 2.03917 92.8795 2.00696 92.42 2.42837C91.9604 2.84979 91.9283 3.56523 92.3483 4.02637C92.7683 4.48751 93.4812 4.51972 93.9408 4.09831Z"
      fill="#EAEEF9"
    />
    <path
      d="M104.319 101.025H11.7842L28.6925 22.9814H121.33L104.319 101.025Z"
      fill="white"
    />
    <path
      d="M104.319 101.025H11.7842L28.6925 22.9814H121.33L104.319 101.025Z"
      fill="#F1F3F9"
      stroke="#D6DCE8"
      stroke-width="2"
      stroke-miterlimit="10"
      stroke-linejoin="round"
    />
    <path
      d="M141.62 101.025H49.0854L33.4067 41.0784L33.3042 40.6672L28.6929 22.9814H121.33L125.327 38.3022L125.941 40.6672L126.044 41.0784L141.62 101.025Z"
      fill="white"
      stroke="#D6DCE8"
      stroke-width="2"
      stroke-miterlimit="10"
      stroke-linejoin="round"
    />
    <path
      d="M125.941 40.6672H33.3042L28.6929 22.9814H121.33L125.327 38.3022L125.941 40.6672Z"
      fill="#F1F3F9"
      stroke="#D6DCE8"
      stroke-width="2"
      stroke-miterlimit="10"
      stroke-linejoin="round"
    />
    <path
      opacity="0.3"
      d="M53.0819 35.6286C54.893 35.6286 56.3611 34.1554 56.3611 32.3382C56.3611 30.521 54.893 29.0479 53.0819 29.0479C51.2709 29.0479 49.8027 30.521 49.8027 32.3382C49.8027 34.1554 51.2709 35.6286 53.0819 35.6286Z"
      fill="#AAB2C5"
    />
    <path
      opacity="0.3"
      d="M107.188 35.6286C108.999 35.6286 110.468 34.1554 110.468 32.3382C110.468 30.521 108.999 29.0479 107.188 29.0479C105.377 29.0479 103.909 30.521 103.909 32.3382C103.909 34.1554 105.377 35.6286 107.188 35.6286Z"
      fill="#AAB2C5"
    />
    <path
      d="M52.2622 33.6751C51.6474 33.6751 51.135 33.161 51.135 32.5441C51.135 31.9271 51.6474 31.413 52.2622 31.413C54.5167 31.413 56.8736 28.2255 56.8736 23.3927C56.8736 23.2899 56.8736 23.0843 56.8736 22.9814C56.7711 18.2515 54.4142 15.3725 52.2622 15.3725C50.2127 15.3725 47.9583 18.1487 47.6509 22.4673H45.2939C45.6014 17.1205 48.5731 13.1104 52.1598 13.1104C55.9513 13.1104 58.9231 17.5318 59.128 23.1871C59.128 23.2899 59.128 23.3927 59.128 23.4956C59.2305 29.1509 56.1563 33.6751 52.2622 33.6751Z"
      fill="#AAB2C5"
    />
    <path
      d="M106.061 33.6751C105.446 33.6751 104.934 33.161 104.934 32.5441C104.934 31.9271 105.446 31.413 106.061 31.413C108.316 31.413 110.672 28.2255 110.672 23.3927C110.672 23.2899 110.672 23.0843 110.672 22.9814C110.57 18.2515 108.213 15.3725 106.061 15.3725C104.012 15.3725 101.757 18.1487 101.45 22.4673H99.0928C99.4002 17.1205 102.372 13.1104 105.959 13.1104C109.75 13.1104 112.722 17.5318 112.927 23.1871C112.927 23.2899 112.927 23.3927 112.927 23.4956C113.029 29.1509 109.955 33.6751 106.061 33.6751Z"
      fill="#AAB2C5"
    />
    <path
      d="M0 100.922H149.101"
      stroke="#D6DCE8"
      stroke-width="2"
      stroke-miterlimit="10"
    />
    <path
      d="M107.701 63.8026C107.086 63.8026 106.676 63.2885 106.676 62.7743C106.676 62.1574 107.086 61.7461 107.701 61.7461H110.878C111.493 61.7461 111.902 62.2602 111.902 62.7743C111.902 63.3913 111.39 63.8026 110.878 63.8026H107.701Z"
      fill="#D6DCE8"
    />
    <path
      d="M64.0469 92.7987C63.637 92.7987 63.2271 92.4902 63.0222 92.0789L61.3826 86.0123H53.2871C52.6722 86.0123 52.2623 85.4982 52.2623 84.9841C52.2623 84.3671 52.7747 83.9558 53.2871 83.9558H60.7677L58.2058 74.9073H50.4178C49.8029 74.9073 49.393 74.3932 49.393 73.8791C49.393 73.2622 49.8029 72.8509 50.4178 72.8509H57.591L55.0291 63.8024H47.6509C47.0361 63.8024 46.6262 63.2882 46.6262 62.7741C46.6262 62.1572 47.0361 61.7459 47.6509 61.7459H54.5168L51.9549 52.6974H44.8841C44.2693 52.6974 43.8594 52.1833 43.8594 51.6691C43.8594 51.0522 44.2693 50.6409 44.8841 50.6409H51.34L50.3153 46.9392C50.2128 46.4251 50.5202 45.8082 51.0326 45.7054C51.1351 45.7054 51.2376 45.7054 51.34 45.7054C51.7499 45.7054 52.1598 46.0138 52.3648 46.4251L53.5945 50.6409H61.7925C62.4073 50.6409 62.8172 51.0522 62.8172 51.6691C62.8172 52.2861 62.4073 52.6974 61.7925 52.6974H54.2093L56.7712 61.7459H69.683L65.584 46.9392C65.4816 46.4251 65.789 45.8082 66.3013 45.7054C66.4038 45.7054 66.5063 45.7054 66.6088 45.7054C67.0187 45.7054 67.4286 46.0138 67.6335 46.4251L68.8632 50.6409H73.2696C73.8845 50.6409 74.2944 51.0522 74.2944 51.6691C74.2944 52.2861 73.782 52.6974 73.2696 52.6974H69.4781L72.0399 61.7459H80.7503C81.3651 61.7459 81.775 62.26 81.775 62.7741C81.775 63.3911 81.3651 63.8024 80.7503 63.8024H72.6548L75.2167 72.8509H88.2309L82.5948 52.6974H79.828C79.2132 52.6974 78.8033 52.1833 78.8033 51.6691C78.8033 51.0522 79.3156 50.6409 79.828 50.6409H81.98L80.9552 46.9392C80.8528 46.6308 80.9552 46.4251 81.0577 46.1167C81.1602 45.911 81.3651 45.7054 81.6726 45.6025C81.775 45.6025 81.8775 45.6025 81.98 45.6025C82.3899 45.6025 82.7998 45.911 83.0047 46.3223L84.2344 50.5381H86.3864C87.0013 50.5381 87.4112 50.9494 87.4112 51.5663C87.4112 52.1833 87.0013 52.5946 86.3864 52.5946H84.8493L87.4112 61.6431H100.425L97.8636 52.5946H91.2027C90.5879 52.5946 90.178 52.0804 90.178 51.5663C90.178 50.9494 90.6903 50.5381 91.2027 50.5381H96.9413L95.9166 46.8364C95.8141 46.3223 96.1215 45.7054 96.6339 45.6025C96.7364 45.6025 96.8388 45.6025 96.9413 45.6025C97.3512 45.6025 97.7611 45.911 97.966 46.3223L99.1958 50.5381H112.21L111.185 46.8364C111.083 46.3223 111.39 45.7054 111.903 45.6025C112.005 45.6025 112.108 45.6025 112.21 45.6025C112.62 45.6025 113.03 45.911 113.235 46.3223L114.464 50.5381H122.458C123.072 50.5381 123.482 50.9494 123.482 51.5663C123.482 52.1833 123.072 52.5946 122.458 52.5946H114.772L117.334 61.6431H125.019C125.634 61.6431 126.044 62.1572 126.044 62.6713C126.044 63.2882 125.634 63.6995 125.019 63.6995H117.949L120.51 72.748H127.889C128.504 72.748 128.913 73.2622 128.913 73.7763C128.913 74.3932 128.504 74.8045 127.889 74.8045H121.125L123.687 83.853H130.655C131.27 83.853 131.68 84.3671 131.68 84.8813C131.68 85.4982 131.168 85.9095 130.655 85.9095H124.2L125.737 91.3592C125.839 91.8733 125.532 92.4902 125.019 92.5931C124.917 92.5931 124.814 92.5931 124.712 92.5931C124.302 92.5931 123.892 92.2846 123.687 91.8733L122.048 85.9095H109.033L110.57 91.2563C110.673 91.5648 110.57 91.7705 110.468 92.0789C110.365 92.2846 110.161 92.4902 109.853 92.5931C109.751 92.5931 109.648 92.5931 109.546 92.5931C109.136 92.5931 108.726 92.2846 108.521 91.8733L106.881 86.0123H93.8671L95.4042 91.3592C95.5067 91.8733 95.1992 92.4902 94.6869 92.5931C94.5844 92.5931 94.4819 92.5931 94.3794 92.5931C93.9695 92.5931 93.5596 92.2846 93.3547 91.8733L91.7151 86.0123H78.7008L80.2379 91.3592C80.3404 91.8733 80.033 92.4902 79.5206 92.5931C79.4181 92.5931 79.3156 92.5931 79.2132 92.5931C78.8033 92.5931 78.3934 92.2846 78.1884 91.8733L76.5488 86.0123H63.5345L65.0717 91.462C65.1741 91.7705 65.0717 91.9761 64.9692 92.2846C64.8667 92.4902 64.6618 92.6959 64.3543 92.7987C64.2519 92.7987 64.1494 92.7987 64.0469 92.7987ZM93.2522 83.9558H121.433L118.871 74.9073H105.857L106.779 78.1977C106.881 78.5062 106.779 78.7118 106.676 79.0203C106.574 79.2259 106.369 79.4316 106.062 79.5344C105.959 79.5344 105.857 79.5344 105.754 79.5344C105.344 79.5344 104.934 79.2259 104.729 78.8147L103.705 75.0102H99.8106C99.1957 75.0102 98.7859 74.4961 98.7859 73.9819C98.7859 73.365 99.1957 72.9537 99.8106 72.9537H103.09L100.528 63.9052H87.6161L90.178 72.9537H93.3547C93.9695 72.9537 94.3794 73.4678 94.3794 73.9819C94.3794 74.5989 93.9695 75.0102 93.3547 75.0102H90.6903L93.2522 83.9558ZM78.0859 83.9558H91.1002L88.5384 74.9073H75.5241L78.0859 83.9558ZM62.9197 83.9558H75.934L73.3721 74.9073H69.5805C68.9657 74.9073 68.5558 74.3932 68.5558 73.8791C68.5558 73.2622 69.0682 72.8509 69.5805 72.8509H72.8597L70.2979 63.8024H57.2836L59.8454 72.8509H63.2271C63.842 72.8509 64.2519 73.365 64.2519 73.8791C64.2519 74.496 63.7395 74.9073 63.2271 74.9073H60.4603L62.9197 83.9558ZM105.344 72.8509H118.359L112.722 52.6974H99.6056L105.344 72.8509Z"
      fill="#D6DCE8"
    />
    <path
      d="M152.019 93.8035C151.594 95.609 150.957 97.5208 150.213 99.114C148.195 103.044 145.009 106.124 141.079 108.142C137.043 110.16 132.263 111.01 127.484 109.948C116.226 107.611 109.003 96.5649 111.34 85.3066C113.677 74.0482 124.616 66.7197 135.875 69.1625C139.911 70.0122 143.416 72.0302 146.39 74.7917C151.381 79.7836 153.506 87.006 152.019 93.8035Z"
      fill="#D6DCE8"
      stroke="#AAB2C5"
      stroke-width="2"
      stroke-miterlimit="10"
    />
    <path
      d="M138.317 86.7491H134.538V82.9697C134.538 81.5003 133.384 80.1641 131.732 80.1641C130.263 80.1641 128.926 81.3172 128.926 82.9697V86.7491H125.147C123.678 86.7491 122.341 87.9022 122.341 89.5547C122.341 90.3253 122.615 91.0393 123.139 91.5629C123.662 92.0865 124.376 92.3603 125.147 92.3603H128.926V96.1398C128.926 97.6091 130.079 98.9454 131.732 98.9454C133.201 98.9454 134.538 97.7923 134.538 96.1398V92.3603H138.317C139.786 92.3603 141.123 91.2072 141.123 89.5547C141.123 87.9022 139.786 86.7491 138.317 86.7491Z"
      fill="white"
      stroke="#AAB2C5"
      stroke-width="2"
    />
  </svg>
