<svg width="16" height="16" viewBox="0 0 16 16" fill="none" xmlns="http://www.w3.org/2000/svg">
<mask id="mask0_273_85" style="mask-type:alpha" maskUnits="userSpaceOnUse" x="0" y="0" width="16" height="16">
<rect width="16" height="16" fill="#D9D9D9"/>
</mask>
<g mask="url(#mask0_273_85)">
<path d="M7.99987 10.6667C8.8332 10.6667 9.54165 10.3751 10.1252 9.79202C10.7083 9.20846 10.9999 8.50002 10.9999 7.66669C10.9999 6.83335 10.7083 6.12491 10.1252 5.54135C9.54165 4.95824 8.8332 4.66669 7.99987 4.66669C7.16654 4.66669 6.45809 4.95824 5.87454 5.54135C5.29143 6.12491 4.99987 6.83335 4.99987 7.66669C4.99987 8.50002 5.29143 9.20846 5.87454 9.79202C6.45809 10.3751 7.16654 10.6667 7.99987 10.6667ZM7.99987 9.46669C7.49987 9.46669 7.07498 9.29158 6.7252 8.94135C6.37498 8.59158 6.19987 8.16669 6.19987 7.66669C6.19987 7.16669 6.37498 6.74158 6.7252 6.39135C7.07498 6.04158 7.49987 5.86669 7.99987 5.86669C8.49987 5.86669 8.92498 6.04158 9.2752 6.39135C9.62498 6.74158 9.79987 7.16669 9.79987 7.66669C9.79987 8.16669 9.62498 8.59158 9.2752 8.94135C8.92498 9.29158 8.49987 9.46669 7.99987 9.46669ZM7.99987 12.6667C6.45543 12.6667 5.04431 12.2585 3.76654 11.442C2.48876 10.6251 1.52209 9.52224 0.866536 8.13335C0.833203 8.0778 0.810981 8.00824 0.79987 7.92469C0.788759 7.84158 0.783203 7.75558 0.783203 7.66669C0.783203 7.5778 0.788759 7.49158 0.79987 7.40802C0.810981 7.32491 0.833203 7.25558 0.866536 7.20002C1.52209 5.81113 2.48876 4.70846 3.76654 3.89202C5.04431 3.07513 6.45543 2.66669 7.99987 2.66669C9.54431 2.66669 10.9554 3.07513 12.2332 3.89202C13.511 4.70846 14.4776 5.81113 15.1332 7.20002C15.1665 7.25558 15.1888 7.32491 15.1999 7.40802C15.211 7.49158 15.2165 7.5778 15.2165 7.66669C15.2165 7.75558 15.211 7.84158 15.1999 7.92469C15.1888 8.00824 15.1665 8.0778 15.1332 8.13335C14.4776 9.52224 13.511 10.6251 12.2332 11.442C10.9554 12.2585 9.54431 12.6667 7.99987 12.6667Z" fill="#7E8695"/>
</g>
</svg>
